<svg xmlns="http://www.w3.org/2000/svg" width="512" height="512" viewBox="130 20 430 430" role="img" aria-label="LunarOJ icon vector">
  <path fill="#6f8fb8" fill-rule="evenodd" d="M 332.03,24.69 334.93,24.47 337.79,24.32 340.56,24.26 343.17,24.31 345.58,24.52 347.72,24.89 349.49,25.45 350.76,26.21 351.44,27.18 351.41,28.38 350.71,29.80 349.44,31.38 347.71,33.12 345.64,34.96 343.34,36.88 340.90,38.84 338.46,40.81 336.08,42.77 333.79,44.71 331.57,46.64 329.43,48.56 327.36,50.48 325.35,52.40 323.42,54.33 321.54,56.27 319.73,58.22 317.97,60.19 316.27,62.19 314.62,64.22 313.02,66.28 311.47,68.38 309.95,70.52 308.48,72.71 307.06,74.94 305.67,77.21 304.33,79.52 303.03,81.87 301.77,84.26 300.56,86.68 299.39,89.14 298.26,91.63 297.18,94.14 296.15,96.69 295.16,99.27 294.21,101.87 293.31,104.49 292.46,107.14 291.66,109.81 290.90,112.50 290.20,115.21 289.54,117.93 288.92,120.67 288.36,123.42 287.85,126.19 287.38,128.96 286.97,131.74 286.60,134.53 286.29,137.33 286.03,140.13 285.82,142.93 285.66,145.73 285.55,148.53 285.50,151.33 285.50,154.13 285.55,156.92 285.65,159.70 285.81,162.48 286.02,165.24 286.29,168.00 286.60,170.75 286.97,173.49 287.39,176.21 287.86,178.93 288.38,181.63 288.94,184.32 289.56,186.99 290.23,189.65 290.94,192.30 291.71,194.93 292.52,197.54 293.37,200.14 294.28,202.72 295.23,205.28 296.22,207.82 297.26,210.34 298.35,212.84 299.48,215.32 300.65,217.77 301.86,220.21 303.12,222.62 304.42,225.01 305.77,227.37 307.15,229.71 308.58,232.02 310.04,234.30 311.55,236.56 313.10,238.79 314.68,241.00 316.30,243.17 317.97,245.31 319.67,247.42 321.40,249.50 323.18,251.55 324.99,253.57 326.83,255.55 328.72,257.50 330.63,259.42 332.59,261.30 334.57,263.14 336.59,264.95 338.64,266.72 340.73,268.45 342.85,270.15 345.00,271.80 347.18,273.42 349.39,274.99 351.64,276.52 353.91,278.02 356.21,279.46 358.54,280.87 360.90,282.23 363.29,283.55 365.71,284.82 368.16,286.05 370.63,287.23 373.12,288.36 375.65,289.44 378.20,290.48 380.77,291.46 383.37,292.40 385.99,293.29 388.63,294.12 391.30,294.91 393.98,295.65 396.68,296.33 399.40,296.97 402.14,297.55 404.88,298.09 407.64,298.57 410.42,299.00 413.20,299.38 415.99,299.71 418.79,299.99 421.59,300.22 424.40,300.39 427.21,300.52 430.02,300.59 432.84,300.61 435.65,300.58 438.47,300.49 441.28,300.36 444.08,300.17 446.88,299.93 449.68,299.63 452.46,299.29 455.24,298.89 458.00,298.44 460.75,297.93 463.49,297.37 466.21,296.76 468.92,296.10 471.61,295.38 474.28,294.61 476.93,293.78 479.56,292.91 482.16,291.97 484.74,290.99 487.30,289.96 489.83,288.87 492.33,287.75 494.80,286.57 497.24,285.36 499.65,284.10 502.03,282.80 504.37,281.46 506.67,280.09 508.94,278.68 511.17,277.24 513.35,275.76 515.50,274.26 517.61,272.72 519.68,271.15 521.73,269.53 523.77,267.85 525.83,266.10 527.90,264.27 530.02,262.34 532.18,260.30 534.39,258.17 536.60,256.05 538.74,254.05 540.74,252.31 542.55,250.93 544.09,250.03 545.30,249.74 546.12,250.16 546.57,251.26 546.69,252.93 546.53,255.09 546.15,257.62 545.58,260.43 544.88,263.41 544.10,266.47 543.28,269.49 542.47,272.40 541.68,275.19 540.89,277.86 540.10,280.45 539.29,282.97 538.47,285.42 537.63,287.85 536.75,290.25 535.83,292.65 534.87,295.06 533.86,297.47 532.81,299.89 531.72,302.32 530.59,304.74 529.41,307.16 528.20,309.57 526.96,311.98 525.68,314.38 524.36,316.77 523.01,319.14 521.63,321.51 520.21,323.85 518.77,326.17 517.30,328.48 515.80,330.76 514.27,333.01 512.72,335.24 511.14,337.44 509.53,339.62 507.90,341.78 506.24,343.91 504.55,346.01 502.84,348.09 501.10,350.15 499.34,352.17 497.55,354.18 495.73,356.15 493.89,358.11 492.02,360.03 490.13,361.93 488.21,363.81 486.27,365.66 484.30,367.48 482.31,369.28 480.30,371.05 478.25,372.79 476.19,374.51 474.10,376.20 471.98,377.87 469.85,379.51 467.68,381.12 465.50,382.71 463.29,384.27 461.06,385.80 458.80,387.30 456.52,388.78 454.22,390.23 451.89,391.66 449.55,393.05 447.18,394.41 444.79,395.75 442.38,397.05 439.96,398.33 437.51,399.57 435.04,400.78 432.56,401.96 430.06,403.11 427.54,404.22 425.01,405.30 422.46,406.34 419.89,407.35 417.31,408.33 414.71,409.26 412.10,410.17 409.47,411.03 406.83,411.86 404.18,412.65 401.52,413.40 398.84,414.12 396.16,414.79 393.46,415.42 390.75,416.02 388.03,416.57 385.31,417.08 382.57,417.55 379.82,417.98 377.07,418.36 374.31,418.70 371.54,419.00 368.77,419.26 365.99,419.47 363.21,419.64 360.42,419.76 357.63,419.85 354.84,419.89 352.04,419.89 349.24,419.85 346.45,419.77 343.65,419.65 340.86,419.49 338.06,419.29 335.27,419.05 332.48,418.77 329.70,418.45 326.92,418.10 324.15,417.70 321.38,417.27 318.62,416.80 315.87,416.29 313.12,415.74 310.39,415.16 307.66,414.54 304.95,413.88 302.24,413.19 299.55,412.46 296.87,411.70 294.21,410.90 291.55,410.07 288.92,409.20 286.29,408.30 283.69,407.37 281.10,406.40 278.53,405.39 275.98,404.36 273.44,403.29 270.93,402.19 268.43,401.06 265.96,399.89 263.50,398.69 261.06,397.46 258.64,396.20 256.25,394.91 253.87,393.59 251.52,392.24 249.18,390.85 246.87,389.44 244.58,388.00 242.31,386.52 240.06,385.02 237.83,383.49 235.63,381.93 233.45,380.34 231.30,378.72 229.16,377.08 227.06,375.41 224.97,373.70 222.91,371.98 220.87,370.22 218.86,368.44 216.88,366.63 214.91,364.79 212.98,362.93 211.07,361.04 209.18,359.13 207.33,357.19 205.50,355.22 203.69,353.23 201.92,351.22 200.17,349.18 198.44,347.12 196.75,345.03 195.08,342.92 193.45,340.79 191.84,338.63 190.26,336.45 188.71,334.25 187.19,332.02 185.69,329.77 184.23,327.50 182.80,325.21 181.40,322.90 180.03,320.56 178.69,318.21 177.38,315.83 176.11,313.43 174.86,311.01 173.65,308.58 172.47,306.12 171.32,303.64 170.21,301.15 169.13,298.63 168.08,296.10 167.06,293.54 166.08,290.97 165.13,288.38 164.22,285.77 163.34,283.15 162.50,280.51 161.69,277.86 160.92,275.19 160.18,272.51 159.48,269.81 158.82,267.10 158.19,264.38 157.59,261.65 157.03,258.91 156.51,256.16 156.03,253.41 155.58,250.64 155.17,247.87 154.80,245.09 154.46,242.30 154.16,239.52 153.90,236.72 153.68,233.93 153.50,231.13 153.35,228.33 153.25,225.52 153.18,222.72 153.15,219.92 153.17,217.12 153.22,214.32 153.31,211.53 153.44,208.73 153.61,205.95 153.82,203.16 154.07,200.39 154.36,197.61 154.70,194.85 155.07,192.09 155.49,189.35 155.95,186.61 156.44,183.88 156.98,181.16 157.56,178.45 158.17,175.75 158.83,173.07 159.52,170.39 160.25,167.73 161.02,165.08 161.83,162.44 162.67,159.82 163.55,157.21 164.47,154.61 165.42,152.03 166.41,149.46 167.43,146.91 168.48,144.38 169.57,141.86 170.70,139.35 171.85,136.87 173.04,134.40 174.26,131.95 175.51,129.52 176.80,127.11 178.11,124.72 179.46,122.35 180.84,119.99 182.24,117.66 183.68,115.35 185.14,113.06 186.64,110.80 188.16,108.55 189.71,106.33 191.28,104.13 192.89,101.96 194.52,99.81 196.18,97.68 197.87,95.57 199.58,93.49 201.32,91.44 203.08,89.41 204.87,87.41 206.69,85.43 208.53,83.47 210.40,81.55 212.30,79.65 214.22,77.77 216.16,75.93 218.13,74.11 220.12,72.32 222.14,70.55 224.18,68.82 226.25,67.11 228.34,65.43 230.45,63.78 232.58,62.16 234.74,60.57 236.93,59.01 239.13,57.47 241.36,55.97 243.61,54.50 245.88,53.06 248.18,51.65 250.49,50.28 252.83,48.93 255.19,47.62 257.57,46.34 259.97,45.09 262.39,43.87 264.84,42.69 267.30,41.54 269.78,40.42 272.29,39.34 274.81,38.29 277.35,37.28 279.91,36.30 282.50,35.36 285.10,34.45 287.72,33.58 290.35,32.74 293.01,31.94 295.68,31.18 298.38,30.45 301.09,29.76 303.82,29.11 306.56,28.49 309.33,27.91 312.11,27.37 314.90,26.87 317.72,26.41 320.55,25.99 323.39,25.60 326.26,25.26 329.13,24.96 Z M 288.35,59.11 287.58,58.85 286.47,58.88 285.08,59.16 283.45,59.66 281.64,60.34 279.69,61.14 277.66,62.04 275.59,63.00 273.53,63.97 271.51,64.94 269.53,65.91 267.57,66.89 265.65,67.89 263.75,68.90 261.87,69.94 260.03,71.01 258.20,72.11 256.40,73.25 254.62,74.41 252.86,75.60 251.12,76.83 249.40,78.08 247.70,79.35 246.02,80.65 244.36,81.97 242.71,83.31 241.08,84.68 239.47,86.06 237.87,87.45 236.28,88.87 234.71,90.29 233.16,91.73 231.61,93.18 230.09,94.65 228.57,96.12 227.07,97.61 225.59,99.11 224.12,100.63 222.67,102.15 221.23,103.70 219.81,105.25 218.41,106.82 217.03,108.40 215.66,110.00 214.31,111.61 212.99,113.24 211.68,114.88 210.39,116.54 209.12,118.21 207.87,119.90 206.64,121.60 205.44,123.32 204.25,125.05 203.09,126.80 201.95,128.56 200.83,130.35 199.74,132.14 198.67,133.96 197.63,135.79 196.60,137.64 195.61,139.51 194.64,141.39 193.69,143.29 192.78,145.21 191.88,147.15 191.01,149.10 190.17,151.06 189.35,153.04 188.56,155.04 187.80,157.05 187.05,159.07 186.34,161.10 185.65,163.15 184.99,165.21 184.35,167.28 183.73,169.37 183.15,171.46 182.58,173.57 182.05,175.68 181.54,177.80 181.05,179.94 180.59,182.08 180.16,184.23 179.75,186.38 179.36,188.55 179.01,190.72 178.67,192.89 178.37,195.07 178.08,197.26 177.83,199.45 177.60,201.65 177.39,203.85 177.21,206.06 177.06,208.26 176.93,210.47 176.83,212.68 176.75,214.90 176.69,217.11 176.67,219.33 176.67,221.54 176.69,223.76 176.74,225.97 176.81,228.19 176.91,230.40 177.04,232.61 177.19,234.82 177.37,237.02 177.57,239.22 177.80,241.42 178.05,243.61 178.33,245.80 178.63,247.99 178.96,250.16 179.32,252.33 179.70,254.50 180.10,256.66 180.53,258.81 180.99,260.95 181.47,263.08 181.98,265.21 182.51,267.32 183.07,269.43 183.65,271.52 184.26,273.61 184.89,275.68 185.55,277.75 186.24,279.80 186.95,281.83 187.68,283.86 188.44,285.87 189.23,287.87 190.04,289.85 190.88,291.82 191.74,293.77 192.63,295.71 193.54,297.64 194.47,299.55 195.43,301.44 196.41,303.33 197.42,305.19 198.45,307.04 199.50,308.88 200.57,310.70 201.67,312.51 202.79,314.30 203.93,316.07 205.09,317.83 206.27,319.58 207.48,321.30 208.70,323.02 209.95,324.71 211.22,326.39 212.51,328.06 213.81,329.70 215.14,331.33 216.49,332.95 217.85,334.55 219.24,336.13 220.65,337.69 222.07,339.24 223.51,340.77 224.97,342.28 226.45,343.78 227.95,345.26 229.46,346.72 230.99,348.17 232.54,349.59 234.10,351.00 235.68,352.40 237.28,353.77 238.89,355.13 240.52,356.46 242.17,357.78 243.83,359.09 245.50,360.37 247.19,361.63 248.90,362.88 250.62,364.11 252.35,365.32 254.10,366.51 255.86,367.68 257.64,368.83 259.43,369.96 261.23,371.08 263.04,372.17 264.87,373.25 266.71,374.30 268.56,375.34 270.43,376.36 272.30,377.35 274.19,378.33 276.08,379.29 277.99,380.23 279.91,381.14 281.84,382.04 283.78,382.91 285.74,383.76 287.70,384.60 289.67,385.40 291.65,386.19 293.64,386.95 295.65,387.69 297.66,388.41 299.68,389.10 301.71,389.77 303.75,390.41 305.80,391.03 307.85,391.62 309.92,392.19 311.99,392.73 314.08,393.24 316.17,393.73 318.27,394.19 320.38,394.62 322.49,395.02 324.62,395.40 326.75,395.75 328.89,396.07 331.04,396.36 333.19,396.62 335.35,396.85 337.52,397.05 339.70,397.22 341.88,397.36 344.07,397.47 346.26,397.54 348.46,397.59 350.67,397.60 352.88,397.58 355.09,397.53 357.31,397.45 359.53,397.34 361.75,397.20 363.97,397.04 366.19,396.84 368.41,396.61 370.62,396.36 372.84,396.07 375.05,395.76 377.25,395.42 379.45,395.06 381.65,394.67 383.84,394.25 386.02,393.80 388.19,393.33 390.35,392.83 392.50,392.31 394.64,391.76 396.77,391.19 398.89,390.59 401.00,389.97 403.09,389.32 405.16,388.65 407.22,387.96 409.26,387.24 411.29,386.51 413.30,385.74 415.29,384.96 417.26,384.16 419.20,383.33 421.13,382.48 423.04,381.62 424.93,380.73 426.79,379.82 428.64,378.88 430.47,377.93 432.28,376.96 434.07,375.96 435.85,374.94 437.61,373.90 439.35,372.84 441.08,371.75 442.80,370.65 444.50,369.52 446.19,368.36 447.87,367.19 449.54,365.99 451.20,364.77 452.84,363.53 454.48,362.27 456.10,360.98 457.72,359.66 459.33,358.33 460.94,356.97 462.54,355.59 464.13,354.18 465.72,352.75 467.30,351.30 468.88,349.82 470.45,348.32 472.03,346.79 473.60,345.24 475.16,343.67 476.72,342.08 478.28,340.46 479.82,338.83 481.35,337.17 482.87,335.50 484.38,333.81 485.86,332.11 487.33,330.39 488.78,328.66 490.21,326.91 491.61,325.15 492.99,323.39 494.33,321.61 495.64,319.84 496.87,318.11 497.98,316.46 498.91,314.93 499.64,313.58 500.10,312.43 500.27,311.53 500.10,310.92 499.60,310.60 498.79,310.52 497.72,310.66 496.42,310.97 494.94,311.41 493.32,311.94 491.59,312.53 489.79,313.13 487.93,313.74 486.02,314.35 484.05,314.96 482.05,315.56 480.00,316.16 477.91,316.75 475.79,317.33 473.63,317.89 471.44,318.44 469.23,318.97 467.00,319.49 464.74,319.97 462.47,320.44 460.19,320.87 457.90,321.28 455.61,321.65 453.31,321.99 451.01,322.29 448.71,322.56 446.42,322.79 444.12,322.99 441.83,323.15 439.54,323.28 437.25,323.38 434.97,323.44 432.70,323.47 430.43,323.46 428.16,323.43 425.91,323.36 423.66,323.26 421.42,323.14 419.18,322.98 416.96,322.79 414.74,322.57 412.54,322.32 410.35,322.05 408.17,321.74 406.00,321.41 403.84,321.05 401.69,320.66 399.55,320.24 397.42,319.80 395.31,319.33 393.21,318.83 391.12,318.31 389.04,317.76 386.97,317.18 384.91,316.58 382.87,315.95 380.83,315.30 378.81,314.62 376.80,313.92 374.81,313.19 372.82,312.43 370.85,311.66 368.89,310.85 366.94,310.03 365.01,309.18 363.08,308.31 361.17,307.41 359.28,306.49 357.39,305.55 355.52,304.59 353.66,303.61 351.81,302.60 349.98,301.57 348.16,300.52 346.35,299.45 344.56,298.35 342.78,297.24 341.01,296.10 339.26,294.95 337.52,293.77 335.79,292.58 334.08,291.36 332.39,290.12 330.71,288.87 329.04,287.59 327.39,286.30 325.76,284.98 324.14,283.65 322.54,282.29 320.96,280.92 319.39,279.53 317.83,278.12 316.30,276.69 314.78,275.24 313.28,273.78 311.80,272.29 310.33,270.79 308.89,269.27 307.46,267.74 306.05,266.18 304.66,264.61 303.29,263.02 301.94,261.41 300.60,259.79 299.29,258.14 298.00,256.49 296.72,254.81 295.47,253.12 294.24,251.41 293.03,249.69 291.84,247.95 290.67,246.20 289.52,244.42 288.40,242.64 287.30,240.83 286.21,239.02 285.16,237.18 284.12,235.34 283.11,233.47 282.12,231.59 281.15,229.70 280.21,227.79 279.29,225.87 278.39,223.94 277.52,221.99 276.68,220.02 275.86,218.05 275.06,216.06 274.29,214.05 273.54,212.03 272.82,210.00 272.13,207.96 271.46,205.90 270.82,203.83 270.20,201.75 269.61,199.65 269.05,197.55 268.51,195.43 268.01,193.30 267.52,191.16 267.07,189.00 266.64,186.84 266.24,184.67 265.87,182.49 265.52,180.31 265.20,178.11 264.91,175.91 264.64,173.70 264.40,171.49 264.19,169.27 264.00,167.05 263.84,164.82 263.71,162.60 263.60,160.36 263.52,158.13 263.47,155.89 263.44,153.66 263.44,151.42 263.46,149.19 263.52,146.95 263.59,144.72 263.70,142.48 263.83,140.26 263.98,138.03 264.16,135.81 264.37,133.59 264.60,131.38 264.86,129.17 265.15,126.97 265.46,124.77 265.80,122.59 266.16,120.41 266.55,118.24 266.97,116.08 267.41,113.92 267.88,111.78 268.38,109.65 268.90,107.53 269.46,105.42 270.05,103.32 270.66,101.23 271.31,99.15 272.00,97.09 272.71,95.04 273.46,93.00 274.24,90.98 275.06,88.97 275.92,86.98 276.81,85.00 277.74,83.03 278.70,81.09 279.68,79.15 280.68,77.24 281.70,75.35 282.71,73.48 283.72,71.62 284.72,69.79 285.70,67.99 286.62,66.24 287.44,64.58 288.11,63.06 288.59,61.71 288.81,60.58 288.75,59.70 Z"/>
  <path fill="#b8cde8" fill-rule="evenodd" d="M 279.56,62.89 280.81,62.86 281.68,63.08 281.92,63.66 281.44,64.59 280.29,65.85 278.61,67.36 276.61,69.02 274.50,70.75 272.45,72.48 270.48,74.19 268.59,75.89 266.76,77.59 265.00,79.28 263.28,80.96 261.62,82.65 260.00,84.34 258.42,86.03 256.87,87.73 255.36,89.44 253.88,91.15 252.44,92.88 251.03,94.62 249.66,96.37 248.32,98.14 247.00,99.92 245.72,101.72 244.46,103.54 243.24,105.38 242.04,107.25 240.86,109.13 239.71,111.04 238.59,112.98 237.49,114.94 236.41,116.93 235.36,118.94 234.34,120.97 233.34,123.02 232.37,125.10 231.42,127.19 230.50,129.31 229.61,131.44 228.75,133.60 227.91,135.77 227.11,137.96 226.33,140.16 225.58,142.39 224.85,144.62 224.16,146.87 223.50,149.14 222.87,151.41 222.26,153.70 221.69,156.00 221.15,158.32 220.64,160.64 220.16,162.97 219.71,165.31 219.30,167.66 218.92,170.01 218.57,172.38 218.25,174.75 217.97,177.12 217.72,179.50 217.50,181.88 217.32,184.27 217.17,186.65 217.06,189.04 216.98,191.43 216.94,193.83 216.93,196.22 216.95,198.61 217.01,201.00 217.10,203.39 217.23,205.77 217.39,208.16 217.58,210.54 217.80,212.91 218.06,215.28 218.35,217.65 218.68,220.01 219.04,222.36 219.42,224.71 219.85,227.05 220.30,229.37 220.79,231.70 221.31,234.01 221.86,236.31 222.44,238.60 223.05,240.88 223.70,243.14 224.37,245.40 225.08,247.64 225.82,249.87 226.59,252.08 227.39,254.28 228.22,256.46 229.08,258.63 229.97,260.78 230.89,262.91 231.84,265.02 232.83,267.12 233.84,269.20 234.88,271.25 235.95,273.29 237.05,275.31 238.17,277.31 239.33,279.30 240.51,281.26 241.71,283.20 242.95,285.13 244.21,287.04 245.49,288.92 246.81,290.79 248.14,292.64 249.50,294.46 250.89,296.27 252.29,298.06 253.72,299.83 255.18,301.58 256.65,303.31 258.15,305.02 259.67,306.71 261.21,308.38 262.78,310.03 264.36,311.66 265.96,313.27 267.58,314.86 269.22,316.42 270.88,317.97 272.56,319.50 274.26,321.01 275.97,322.50 277.70,323.96 279.45,325.41 281.22,326.83 283.00,328.23 284.81,329.61 286.63,330.96 288.46,332.30 290.32,333.60 292.19,334.89 294.08,336.15 295.99,337.38 297.91,338.59 299.85,339.77 301.81,340.93 303.79,342.06 305.78,343.16 307.80,344.23 309.82,345.28 311.87,346.30 313.93,347.29 316.01,348.25 318.11,349.18 320.23,350.08 322.36,350.96 324.51,351.80 326.67,352.61 328.85,353.38 331.05,354.13 333.27,354.84 335.50,355.52 337.75,356.17 340.02,356.79 342.30,357.37 344.60,357.92 346.91,358.43 349.23,358.91 351.56,359.36 353.91,359.77 356.26,360.15 358.63,360.49 361.00,360.81 363.38,361.08 365.77,361.33 368.16,361.54 370.55,361.71 372.95,361.85 375.35,361.96 377.75,362.03 380.16,362.07 382.56,362.07 384.97,362.04 387.37,361.98 389.76,361.88 392.16,361.74 394.55,361.57 396.93,361.36 399.31,361.12 401.68,360.85 404.04,360.54 406.40,360.19 408.74,359.81 411.07,359.40 413.39,358.94 415.70,358.46 418.00,357.93 420.27,357.38 422.54,356.78 424.79,356.15 427.02,355.49 429.24,354.80 431.44,354.07 433.62,353.31 435.79,352.52 437.94,351.71 440.07,350.86 442.19,349.99 444.29,349.09 446.37,348.17 448.44,347.22 450.48,346.25 452.51,345.26 454.53,344.25 456.52,343.21 458.50,342.16 460.45,341.08 462.39,339.99 464.31,338.87 466.21,337.73 468.08,336.56 469.94,335.36 471.77,334.14 473.58,332.88 475.39,331.59 477.20,330.25 479.03,328.87 480.89,327.42 482.79,325.91 484.75,324.33 486.76,322.68 488.77,321.03 490.72,319.45 492.53,318.03 494.12,316.84 495.44,315.96 496.40,315.48 496.94,315.46 497.01,315.97 496.66,316.94 495.95,318.29 494.95,319.93 493.72,321.80 492.33,323.81 490.83,325.87 489.30,327.91 487.75,329.90 486.19,331.84 484.62,333.73 483.04,335.58 481.44,337.38 479.84,339.14 478.22,340.86 476.59,342.55 474.94,344.21 473.29,345.83 471.62,347.43 469.94,349.00 468.25,350.55 466.55,352.08 464.83,353.59 463.10,355.08 461.36,356.56 459.60,358.01 457.83,359.45 456.05,360.86 454.26,362.26 452.45,363.63 450.62,364.98 448.79,366.31 446.94,367.62 445.07,368.90 443.19,370.17 441.30,371.40 439.39,372.62 437.46,373.81 435.52,374.97 433.56,376.11 431.59,377.23 429.60,378.31 427.60,379.37 425.58,380.41 423.54,381.41 421.49,382.39 419.42,383.34 417.33,384.26 415.23,385.15 413.10,386.01 410.96,386.84 408.81,387.64 406.63,388.41 404.44,389.14 402.23,389.85 400.00,390.52 397.75,391.16 395.49,391.77 393.22,392.34 390.93,392.89 388.63,393.40 386.31,393.88 383.99,394.33 381.65,394.74 379.30,395.13 376.95,395.48 374.58,395.80 372.21,396.09 369.83,396.34 367.45,396.57 365.06,396.76 362.67,396.92 360.27,397.05 357.87,397.14 355.47,397.21 353.07,397.24 350.67,397.24 348.27,397.21 345.87,397.14 343.47,397.05 341.08,396.92 338.69,396.76 336.30,396.57 333.93,396.35 331.55,396.09 329.19,395.80 326.83,395.48 324.48,395.13 322.15,394.75 319.82,394.33 317.50,393.89 315.20,393.41 312.90,392.90 310.62,392.36 308.35,391.79 306.10,391.18 303.85,390.55 301.62,389.89 299.40,389.20 297.19,388.47 295.00,387.72 292.82,386.94 290.65,386.13 288.50,385.30 286.36,384.43 284.23,383.54 282.12,382.62 280.03,381.67 277.95,380.69 275.88,379.69 273.83,378.66 271.79,377.60 269.77,376.52 267.76,375.42 265.77,374.28 263.80,373.12 261.84,371.94 259.90,370.73 257.98,369.50 256.07,368.24 254.18,366.96 252.30,365.66 250.45,364.33 248.61,362.98 246.79,361.60 244.98,360.21 243.20,358.79 241.43,357.34 239.68,355.88 237.95,354.40 236.24,352.89 234.55,351.36 232.88,349.81 231.23,348.24 229.59,346.65 227.98,345.04 226.38,343.41 224.81,341.76 223.26,340.09 221.73,338.41 220.21,336.70 218.72,334.98 217.25,333.23 215.80,331.47 214.38,329.69 212.97,327.90 211.59,326.08 210.23,324.25 208.89,322.40 207.57,320.54 206.28,318.66 205.01,316.76 203.76,314.85 202.53,312.93 201.33,310.98 200.16,309.03 199.00,307.05 197.88,305.07 196.77,303.06 195.70,301.04 194.64,299.01 193.62,296.96 192.62,294.90 191.64,292.83 190.70,290.74 189.78,288.63 188.88,286.51 188.02,284.38 187.18,282.23 186.37,280.07 185.60,277.90 184.85,275.71 184.12,273.51 183.43,271.29 182.77,269.06 182.14,266.82 181.54,264.57 180.97,262.30 180.43,260.02 179.93,257.73 179.45,255.42 179.01,253.10 178.60,250.77 178.22,248.43 177.88,246.08 177.57,243.71 177.29,241.33 177.04,238.94 176.83,236.54 176.66,234.14 176.51,231.72 176.40,229.30 176.32,226.87 176.27,224.44 176.26,222.00 176.27,219.57 176.32,217.13 176.40,214.68 176.51,212.24 176.66,209.80 176.83,207.36 177.04,204.93 177.28,202.50 177.55,200.07 177.84,197.65 178.17,195.23 178.53,192.82 178.92,190.43 179.34,188.04 179.80,185.66 180.28,183.29 180.79,180.93 181.33,178.59 181.89,176.26 182.49,173.95 183.12,171.66 183.78,169.38 184.46,167.11 185.17,164.87 185.92,162.65 186.69,160.45 187.48,158.27 188.31,156.11 189.17,153.97 190.05,151.86 190.96,149.76 191.89,147.69 192.85,145.63 193.84,143.60 194.86,141.58 195.90,139.59 196.97,137.61 198.06,135.65 199.18,133.71 200.32,131.78 201.49,129.88 202.68,127.99 203.89,126.11 205.13,124.25 206.40,122.41 207.68,120.58 209.00,118.77 210.33,116.98 211.69,115.19 213.06,113.42 214.46,111.67 215.89,109.92 217.33,108.19 218.80,106.48 220.29,104.77 221.80,103.08 223.32,101.40 224.87,99.73 226.45,98.07 228.04,96.42 229.66,94.78 231.30,93.16 232.97,91.56 234.67,89.97 236.39,88.39 238.15,86.83 239.93,85.29 241.75,83.77 243.60,82.27 245.49,80.79 247.41,79.33 249.38,77.89 251.37,76.47 253.41,75.08 255.46,73.73 257.53,72.42 259.60,71.16 261.66,69.96 263.70,68.82 265.72,67.76 267.69,66.78 269.62,65.89 271.48,65.10 273.28,64.42 275.00,63.85 276.62,63.39 278.15,63.07 Z"/>
  <g fill="none" stroke="#6f8fb8" stroke-width="14" stroke-linecap="round" stroke-linejoin="round">
    <path d="M 389 164 L 351 191 L 389 218"/>
    <path d="M 446 148 L 410 240"/>
    <path d="M 475 164 L 513 191 L 475 218"/>
  </g>
</svg>

